<svg width="32" height="32" viewBox="0 0 32 32" fill="none" xmlns="http://www.w3.org/2000/svg">
<path d="M24.728 5.17456C24.3594 5.17456 23.9991 5.2938 23.6926 5.51721C23.3861 5.74061 23.1473 6.05814 23.0063 6.42963C22.8652 6.80113 22.8284 7.2099 22.9003 7.60425C22.9723 7.9986 23.1498 8.36082 23.4105 8.64509C23.6712 8.92936 24.0033 9.12291 24.3649 9.20127C24.7264 9.27963 25.1011 9.23927 25.4416 9.0853C25.7821 8.93133 26.0731 8.67067 26.2778 8.33628C26.4825 8.00189 26.5917 7.60879 26.5916 7.2067C26.5916 6.0844 25.7569 5.17456 24.728 5.17456Z" fill="black"/>
<path fill-rule="evenodd" clip-rule="evenodd" d="M16.4385 7.54974C12.0342 7.54974 8.46338 11.445 8.46338 16.2493C8.46338 21.0537 12.0342 24.9471 16.4385 24.9471C20.8427 24.9471 24.4126 21.0537 24.4126 16.2493C24.4126 11.445 20.8427 7.54974 16.4385 7.54974ZM16.4707 21.8495C19.2849 21.8495 21.5663 19.3609 21.5663 16.291C21.5663 13.2211 19.2849 10.7324 16.4707 10.7324C13.6565 10.7324 11.3751 13.2211 11.3751 16.291C11.3751 19.3609 13.6565 21.8495 16.4707 21.8495Z" fill="black"/>
<rect x="2.44141" y="1.5" width="28.0588" height="28.0588" stroke="#1B1B1B" stroke-width="3"/>
</svg>
