<?xml version="1.0" standalone="no"?>
<!DOCTYPE svg PUBLIC "-//W3C//DTD SVG 20010904//EN"
 "http://www.w3.org/TR/2001/REC-SVG-20010904/DTD/svg10.dtd">
<svg version="1.0" xmlns="http://www.w3.org/2000/svg"
 width="2481.000000pt" height="604.000000pt" viewBox="0 0 2481.000000 604.000000"
 preserveAspectRatio="xMidYMid meet">
<metadata>
Created by potrace 1.16, written by Peter Selinger 2001-2019
</metadata>
<g transform="translate(0.000000,604.000000) scale(0.100000,-0.100000)"
fill="#000000" stroke="none">
<path d="M1540 4391 c0 -26 4 -31 33 -35 223 -32 253 -42 284 -99 17 -30 18
-103 18 -1232 0 -1323 4 -1236 -63 -1281 -30 -21 -87 -34 -219 -50 -53 -6 -53
-6 -53 -41 l0 -34 683 4 c747 4 741 4 905 67 124 48 209 106 318 214 160 160
270 344 353 593 98 295 151 666 151 1061 0 557 -143 746 -634 840 -68 12 -219
16 -928 19 l-848 4 0 -30z m1878 -141 c107 -14 149 -27 185 -60 49 -43 44 -87
-22 -230 -47 -99 -54 -125 -59 -192 -4 -73 -3 -78 23 -104 26 -26 29 -27 108
-21 45 4 100 9 122 13 57 9 90 -19 89 -73 -2 -53 -24 -92 -108 -187 -165 -187
-173 -205 -192 -415 -54 -601 -145 -874 -368 -1097 -121 -120 -252 -171 -466
-181 -226 -10 -403 23 -464 86 -57 60 -56 38 -56 1085 0 624 4 984 11 1026 37
231 175 322 524 349 155 12 586 12 673 1z"/>
<path d="M4861 3885 c-284 -62 -498 -234 -600 -484 -54 -131 -66 -200 -66
-391 1 -158 3 -181 23 -232 33 -82 68 -108 145 -108 100 0 147 40 161 140 9
62 -10 92 -114 183 -47 41 -94 86 -104 101 -34 53 -34 136 1 151 10 4 61 11
113 15 85 7 97 11 117 35 39 45 31 90 -27 158 -77 90 -65 142 38 174 50 16
100 18 382 18 341 0 427 -8 501 -45 79 -41 92 -88 69 -255 -6 -38 -14 -151
-19 -250 -11 -232 -25 -272 -120 -365 -84 -82 -195 -138 -541 -275 -450 -178
-563 -254 -607 -404 -20 -70 -14 -179 14 -242 44 -99 154 -173 304 -205 109
-23 366 -15 469 15 189 56 345 182 442 359 l35 62 6 -90 c20 -273 90 -360 292
-360 109 0 155 12 200 51 68 60 93 194 102 557 l6 242 -40 0 -40 0 -6 -222
c-7 -266 -21 -349 -67 -390 -17 -16 -39 -28 -50 -28 -31 0 -67 17 -76 37 -5
10 -11 416 -14 903 -5 876 -5 885 -26 931 -57 122 -193 189 -444 219 -120 14
-382 11 -459 -5z m604 -1690 c-38 -165 -128 -250 -330 -311 -84 -25 -105 -27
-322 -32 -306 -6 -440 11 -503 64 -42 36 -42 93 -1 134 37 38 104 56 281 75
258 28 311 50 430 179 182 196 284 290 370 339 l85 47 3 -215 c2 -164 -1 -231
-13 -280z"/>
<path d="M6585 3850 c-110 -26 -244 -58 -297 -70 l-98 -22 0 -33 0 -33 68 -7
c92 -9 187 -32 217 -51 13 -8 32 -37 42 -62 17 -44 18 -102 18 -887 l0 -840
-23 -47 c-32 -65 -75 -82 -264 -103 l-58 -6 0 -35 0 -34 480 0 480 0 0 34 c0
34 -1 34 -52 41 -126 15 -173 28 -200 55 -47 48 -50 76 -45 579 l4 466 27 114
c99 410 321 721 586 822 82 31 178 42 265 30 182 -26 260 -102 303 -301 14
-66 16 -170 17 -840 0 -590 -3 -775 -13 -807 -22 -75 -67 -97 -239 -118 -52
-7 -53 -7 -53 -41 l0 -34 480 0 480 0 0 34 0 35 -57 6 c-190 20 -249 47 -275
124 -8 26 -14 264 -18 841 -7 885 -4 846 -71 986 -55 116 -182 207 -335 239
-91 19 -273 19 -366 0 -323 -68 -586 -340 -722 -745 l-36 -105 0 433 0 432
-22 -1 c-13 -1 -113 -23 -223 -49z"/>
<path d="M9485 3883 c-319 -68 -549 -288 -636 -608 -19 -67 -22 -108 -23 -250
-1 -199 13 -266 69 -322 30 -30 38 -33 96 -33 100 0 146 38 163 133 12 65 -7
99 -99 177 -46 39 -96 86 -110 104 -42 56 -46 145 -8 161 10 4 60 11 111 15
114 9 142 28 142 95 0 36 -7 50 -50 99 -76 86 -65 141 33 172 42 14 105 18
331 22 398 6 545 -15 606 -85 26 -30 30 -41 30 -96 0 -34 -5 -93 -11 -132 -5
-38 -14 -149 -19 -245 -9 -189 -22 -247 -69 -312 -73 -99 -202 -170 -590 -323
-134 -53 -282 -116 -330 -139 -221 -111 -301 -220 -288 -391 13 -171 122 -278
328 -321 109 -23 366 -15 469 15 94 28 188 77 264 139 57 46 150 161 192 237
l21 39 7 -85 c18 -224 67 -316 185 -349 48 -13 186 -13 236 1 22 6 56 28 76
48 67 67 87 178 96 539 l6 252 -40 0 -40 0 -6 -222 c-6 -266 -21 -349 -67
-390 -17 -16 -39 -28 -50 -28 -31 0 -67 17 -76 37 -5 10 -11 416 -14 903 l-5
885 -28 57 c-57 115 -189 178 -437 208 -125 15 -382 11 -465 -7z m625 -1421
c0 -161 -4 -233 -15 -275 -42 -160 -132 -243 -330 -303 -84 -25 -105 -27 -322
-32 -313 -6 -449 13 -505 68 -39 39 -39 91 1 130 37 38 104 56 281 75 294 32
311 42 548 302 51 57 119 122 150 146 65 49 161 106 180 107 9 0 12 -50 12
-218z"/>
<path d="M13339 3873 c-23 -61 -749 -2236 -749 -2244 0 -6 79 -8 182 -7 l181
3 92 275 92 275 446 3 445 2 57 -177 c31 -98 71 -223 89 -278 l33 -100 181 -3
c100 -1 182 1 182 5 0 5 -162 517 -359 1138 l-359 1130 -251 3 -251 2 -11 -27z
m416 -828 c87 -275 160 -505 162 -512 4 -10 -64 -13 -330 -13 l-335 0 171 514
c94 283 172 514 173 513 1 -1 72 -227 159 -502z"/>
<path d="M18600 3873 c-47 -14 -115 -33 -152 -44 l-68 -20 0 -259 0 -260 -145
0 -145 0 0 -155 0 -155 145 0 145 0 0 -429 c0 -490 7 -557 65 -678 79 -161
208 -227 493 -248 l92 -7 0 181 c0 181 0 181 -22 181 -64 1 -209 20 -227 29
-11 7 -29 26 -38 44 -16 29 -18 75 -21 480 l-3 447 155 0 156 0 0 155 0 155
-155 0 -155 0 0 305 c0 284 -1 305 -17 304 -10 -1 -56 -12 -103 -26z"/>
<path d="M19410 3889 c-32 -13 -78 -56 -96 -91 -18 -34 -18 -109 0 -151 41
-99 181 -136 277 -73 42 28 79 96 79 144 0 38 -23 98 -48 125 -45 50 -147 72
-212 46z"/>
<path d="M12014 3216 l-329 -365 -350 350 -351 349 -39 -40 -39 -40 349 -350
350 -350 -350 -350 -350 -350 43 -42 42 -43 348 348 349 349 324 -358 c178
-196 327 -362 331 -368 9 -13 160 133 156 150 -2 6 -164 156 -361 334 -196
178 -356 327 -355 331 2 3 161 148 353 322 193 174 354 324 360 332 8 11 -6
30 -60 85 -38 38 -74 70 -81 70 -6 0 -159 -164 -340 -364z"/>
<path d="M17135 3314 c-105 -16 -192 -41 -274 -81 -275 -132 -428 -445 -408
-837 24 -483 288 -772 734 -802 179 -12 359 22 494 92 161 84 293 258 343 451
26 101 40 93 -158 93 l-174 0 -28 -57 c-61 -125 -189 -214 -334 -231 -259 -31
-452 95 -517 339 -22 86 -22 262 0 348 51 193 184 316 367 341 219 30 404 -61
486 -239 l28 -61 173 0 c199 0 186 -8 157 104 -26 103 -95 234 -164 309 -144
157 -306 223 -565 231 -71 3 -143 2 -160 0z"/>
<path d="M20495 3310 c-415 -65 -655 -377 -655 -855 0 -488 251 -803 680 -856
181 -22 357 5 509 78 79 38 108 59 181 131 77 76 94 100 138 192 28 58 58 132
66 165 55 220 42 491 -34 682 -88 221 -273 386 -497 444 -90 23 -296 33 -388
19z m223 -340 c102 -17 167 -47 231 -105 107 -100 154 -225 154 -410 0 -185
-48 -311 -154 -410 -93 -86 -229 -123 -381 -104 -240 29 -388 226 -388 514 0
284 139 475 375 514 71 12 92 12 163 1z"/>
<path d="M14742 2738 c4 -534 5 -556 26 -633 54 -196 158 -331 313 -405 106
-50 201 -70 340 -70 252 0 397 81 490 274 l39 80 0 -177 0 -177 170 0 170 0 0
830 0 830 -170 0 -170 0 0 -457 c0 -252 -5 -489 -10 -526 -25 -174 -140 -285
-335 -328 -91 -19 -249 -17 -312 4 -102 35 -175 128 -202 255 -7 35 -11 224
-11 552 l0 500 -171 0 -170 0 3 -552z"/>
<path d="M19300 2455 l0 -835 180 0 180 0 0 835 0 835 -180 0 -180 0 0 -835z"/>
<path d="M21610 2455 l0 -835 175 0 175 0 0 499 c0 471 1 502 20 564 51 164
220 259 465 261 168 1 256 -39 320 -148 51 -88 55 -130 55 -673 l0 -503 170 0
170 0 0 523 c0 315 -4 548 -11 586 -55 343 -273 536 -628 557 -252 15 -435
-78 -526 -267 l-35 -73 0 172 0 172 -175 0 -175 0 0 -835z"/>
</g>
</svg>
