<svg width="1920" height="622" viewBox="0 0 1920 622" fill="none" xmlns="http://www.w3.org/2000/svg">
<path d="M1920 16.3948V1.45248e-05L1687.29 0V16.3948H1920Z" fill="white"/>
<path d="M1920 65.5684V49.1735H1687.29V65.5684V81.9634H1920V65.5684Z" fill="white"/>
<path d="M1920 375.371V358.987V342.592V326.197V309.813V293.419H1687.29V309.813V326.197V342.592V358.987V375.371V391.766H1920V375.371Z" fill="white"/>
<path d="M1920 604.855V588.472V572.075V555.678V539.296V522.899V506.507V490.11H1687.29V506.507V522.899V539.296V555.678V572.075V588.472V604.855V621.247H1920V604.855Z" fill="white"/>
<path d="M1920 196.705V180.311V163.916V147.521H1687.29V163.916V180.311V196.705V213.09H1920V196.705Z" fill="white"/>
<path d="M1687.29 32.7787V16.3948H1454.58V32.7787V49.1737H1687.29V32.7787Z" fill="white"/>
<path d="M1687.29 131.138V114.743V98.3476V81.9637H1454.58V98.3476V114.743V131.138V147.521H1687.29V131.138Z" fill="white"/>
<path d="M1687.29 277.025V260.64V244.246V227.851V211.456H1454.58V227.851V244.246V260.64V277.025V293.419H1687.29V277.025Z" fill="white"/>
<path d="M1687.29 473.728V457.334V440.939V424.555V408.16V391.765H1454.58V408.16V424.555V440.939V457.334V473.728V490.11H1687.29V473.728Z" fill="white"/>
<path d="M1454.58 16.3949V9.63525e-06L1280.04 0V16.3948L1454.58 16.3949Z" fill="white"/>
<path d="M1454.58 65.5684V49.1735H1280.04V65.5684V81.9634H1454.58V65.5684Z" fill="white"/>
<path d="M1454.58 375.371V358.987V342.592V326.197V309.813V293.419H1280.04V309.813V326.197V342.592V358.987V375.371V391.766H1454.58V375.371Z" fill="white"/>
<path d="M1454.58 604.855V588.472V572.075V555.678V539.296V522.899V506.507V490.11H1280.04V506.507V522.899V539.296V555.678V572.075V588.472V604.855V621.247H1454.58V604.855Z" fill="white"/>
<path d="M1454.58 196.705V180.311V163.916V147.521H1280.04V163.916V180.311V196.705V213.09H1454.58V196.705Z" fill="white"/>
<path d="M1280.04 32.7782V16.3943H1105.51V32.7782V49.1733H1280.04V32.7782Z" fill="white"/>
<path d="M1280.04 131.138V114.743V98.3476V81.9637H1105.51V98.3476V114.743V131.138V147.521H1280.04V131.138Z" fill="white"/>
<path d="M1280.04 277.025V260.64V244.246V227.851V211.456H1105.51V227.851V244.246V260.64V277.025V293.419H1280.04V277.025Z" fill="white"/>
<path d="M1280.04 473.728V457.334V440.939V424.555V408.16V391.765H1105.51V408.16V424.555V440.939V457.334V473.728V490.11H1280.04V473.728Z" fill="white"/>
<path d="M1105.51 16.3949V9.63525e-06L942.377 0V16.3948L1105.51 16.3949Z" fill="white"/>
<path d="M1105.51 65.5684V49.1735H942.377V65.5684V81.9634H1105.51V65.5684Z" fill="white"/>
<path d="M1105.51 375.371V358.987V342.592V326.197V309.813V293.419H942.377V309.813V326.197V342.592V358.987V375.371V391.766H1105.51V375.371Z" fill="white"/>
<path d="M1105.51 604.855V588.472V572.075V555.678V539.296V522.899V506.507V490.11H942.377V506.507V522.899V539.296V555.678V572.075V588.472V604.855V621.247H1105.51V604.855Z" fill="white"/>
<path d="M1105.51 196.705V180.31V163.915V147.52H942.377V163.915V180.31V196.705V213.089H1105.51V196.705Z" fill="white"/>
<path d="M942.377 32.7782V16.3943H779.243V32.7782V49.1733H942.377V32.7782Z" fill="white"/>
<path d="M942.377 131.138V114.743V98.3476V81.9637H779.243V98.3476V114.743V131.138V147.521H942.377V131.138Z" fill="white"/>
<path d="M942.377 277.024V260.64V244.245V227.85V211.456H779.243V227.85V244.245V260.64V277.024V293.419H942.377V277.024Z" fill="white"/>
<path d="M942.377 473.728V457.334V440.939V424.555V408.16V391.765H779.243V408.16V424.555V440.939V457.334V473.728V490.11H942.377V473.728Z" fill="white"/>
<path d="M779.248 16.3948V4.88953e-06L643.479 0V16.3948H779.248Z" fill="white"/>
<path d="M779.243 65.5684V49.1735H643.479V65.5684V81.9634H779.243V65.5684Z" fill="white"/>
<path d="M779.243 375.371V358.987V342.592V326.197V309.813V293.419H643.479V309.813V326.197V342.592V358.987V375.371V391.766H779.243V375.371Z" fill="white"/>
<path d="M779.243 604.855V588.472V572.075V555.678V539.296V522.899V506.507V490.11H643.479V506.507V522.899V539.296V555.678V572.075V588.472V604.855V621.247H779.243V604.855Z" fill="white"/>
<path d="M779.243 196.705V180.311V163.916V147.521H643.479V163.916V180.311V196.705V213.09H779.243V196.705Z" fill="white"/>
<path d="M643.479 32.7782V16.3943H507.71V32.7782V49.1733H643.479V32.7782Z" fill="white"/>
<path d="M643.479 131.138V114.743V98.3476V81.9637H507.71V98.3476V114.743V131.138V147.521H643.479V131.138Z" fill="white"/>
<path d="M643.479 277.024V260.64V244.245V227.85V211.456H507.71V227.85V244.245V260.64V277.024V293.419H643.479V277.024Z" fill="white"/>
<path d="M643.479 473.728V457.334V440.939V424.555V408.16V391.765H507.71V408.16V424.555V440.939V457.334V473.728V490.11H643.479V473.728Z" fill="white"/>
<path d="M507.715 16.3948V4.88953e-06L400.222 0V16.3948H507.715Z" fill="white"/>
<path d="M507.71 65.5684V49.1735H400.221V65.5684V81.9634H507.71V65.5684Z" fill="white"/>
<path d="M507.71 375.371V358.987V342.592V326.197V309.813V293.419H400.221V309.813V326.197V342.592V358.987V375.371V391.766H507.71V375.371Z" fill="white"/>
<path d="M507.71 604.855V588.473V572.076V555.684V539.297V522.905V506.508V490.116H400.221V506.508V522.905V539.297V555.684V572.076V588.473V604.855V621.252H507.71V604.855Z" fill="white"/>
<path d="M507.71 196.705V180.311V163.916V147.521H400.221V163.916V180.311V196.705V213.09H507.71V196.705Z" fill="white"/>
<path d="M400.221 32.7782V16.3943H292.737V32.7782V49.1733H400.221V32.7782Z" fill="white"/>
<path d="M400.221 131.138V114.743V98.3476V81.9637H292.737V98.3476V114.743V131.138V147.521H400.221V131.138Z" fill="white"/>
<path d="M400.221 277.024V260.64V244.245V227.85V211.456H292.737V227.85V244.245V260.64V277.024V293.419H400.221V277.024Z" fill="white"/>
<path d="M400.221 473.728V457.334V440.939V424.555V408.16V391.765H292.737V408.16V424.555V440.939V457.334V473.728V490.11H400.221V473.728Z" fill="white"/>
<path d="M292.739 16.3948V4.88953e-06L214.741 0V16.3948H292.739Z" fill="white"/>
<path d="M292.738 65.5684V49.1735H214.74V65.5684V81.9634H292.738V65.5684Z" fill="white"/>
<path d="M292.739 375.371V358.987V342.592V326.197V309.813V293.419H214.741V309.813V326.197V342.592V358.987V375.371V391.766H292.739V375.371Z" fill="white"/>
<path d="M292.739 604.855V588.472V572.075V555.678V539.296V522.899V506.507V490.11H214.741V506.507V522.899V539.296V555.678V572.075V588.472V604.855V621.247H292.739V604.855Z" fill="white"/>
<path d="M292.739 196.705V180.311V163.916V147.521H214.741V163.916V180.311V196.705V213.09H292.739V196.705Z" fill="white"/>
<path d="M214.739 32.7782V16.3943H136.741V32.7782V49.1733H214.739V32.7782Z" fill="white"/>
<path d="M214.739 131.138V114.743V98.3476V81.9637H136.741V98.3476V114.743V131.138V147.521H214.739V131.138Z" fill="white"/>
<path d="M214.739 277.024V260.64V244.245V227.85V211.456H136.741V227.85V244.245V260.64V277.024V293.419H214.739V277.024Z" fill="white"/>
<path d="M214.739 473.728V457.334V440.939V424.555V408.16V391.765H136.741V408.16V424.555V440.939V457.334V473.728V490.11H214.739V473.728Z" fill="white"/>
<path d="M136.742 16.3948V0H87.0201V16.3948H136.742Z" fill="white"/>
<path d="M136.742 65.5684V49.1735H87.0201V65.5684V81.9634H136.742V65.5684Z" fill="white"/>
<path d="M136.742 375.371V358.987V342.592V326.197V309.813V293.419H87.0201V309.813V326.197V342.592V358.987V375.371V391.766H136.742V375.371Z" fill="white"/>
<path d="M136.742 604.855V588.472V572.075V555.678V539.296V522.899V506.507V490.11H87.0201V506.507V522.899V539.296V555.678V572.075V588.472V604.855V621.247H136.742V604.855Z" fill="white"/>
<path d="M136.742 196.705V180.311V163.916V147.521H87.0201V163.916V180.311V196.705V213.09H136.742V196.705Z" fill="white"/>
<path d="M37.2963 16.3948V0H12.4312V16.3948H37.2963Z" fill="white"/>
<path d="M37.2963 65.5684V49.1735H12.4312V65.5684V81.9634H37.2963V65.5684Z" fill="white"/>
<path d="M37.2963 375.371V358.987V342.592V326.197V309.813V293.419H12.4312V309.813V326.197V342.592V358.987V375.371V391.766H37.2963V375.371Z" fill="white"/>
<path d="M37.2963 604.855V588.472V572.075V555.678V539.296V522.899V506.507V490.11H12.4312V506.507V522.899V539.296V555.678V572.075V588.472V604.855V621.247H37.2963V604.855Z" fill="white"/>
<path d="M37.2963 196.705V180.311V163.916V147.521H12.4312V163.916V180.311V196.705V213.09H37.2963V196.705Z" fill="white"/>
<path d="M12.4327 32.7782V16.3943H0V32.7782V49.1733H12.4327V32.7782Z" fill="white"/>
<path d="M12.4327 131.138V114.743V98.3476V81.9637H0V98.3476V114.743V131.138V147.521H12.4327V131.138Z" fill="white"/>
<path d="M12.4327 277.024V260.64V244.245V227.85V211.456H0V227.85V244.245V260.64V277.024V293.419H12.4327V277.024Z" fill="white"/>
<path d="M12.4327 473.728V457.334V440.939V424.555V408.16V391.765H0V408.16V424.555V440.939V457.334V473.728V490.11H12.4327V473.728Z" fill="white"/>
<path d="M87.019 32.7782V16.3943H37.2965V32.7782V49.1733H87.019V32.7782Z" fill="white"/>
<path d="M87.019 131.138V114.743V98.3476V81.9637H37.2965V98.3476V114.743V131.138V147.521H87.019V131.138Z" fill="white"/>
<path d="M87.019 277.024V260.64V244.245V227.85V211.456H37.2965V227.85V244.245V260.64V277.024V293.419H87.019V277.024Z" fill="white"/>
<path d="M87.019 473.728V457.334V440.939V424.555V408.16V391.765H37.2965V408.16V424.555V440.939V457.334V473.728V490.11H87.019V473.728Z" fill="white"/>
</svg>
