<svg width="32" height="32" viewBox="0 0 32 32" fill="none" xmlns="http://www.w3.org/2000/svg">
<path fill-rule="evenodd" clip-rule="evenodd" d="M15.9541 13.0423L15.9149 12.3947C15.797 10.7163 16.8312 9.18318 18.4676 8.58845C19.0698 8.37699 20.0909 8.35056 20.7585 8.53559C21.0204 8.61489 21.5178 8.87921 21.8713 9.1171L22.5127 9.55323L23.2196 9.32856C23.6124 9.20961 24.136 9.01137 24.3717 8.87921C24.5942 8.76026 24.7906 8.69418 24.7906 8.73383C24.7906 8.95851 24.3062 9.72505 23.9004 10.148C23.3506 10.7427 23.5076 10.7956 24.6204 10.3991C25.288 10.1744 25.3011 10.1744 25.1702 10.4255C25.0917 10.5577 24.6858 11.0202 24.2538 11.4431C23.5207 12.17 23.4815 12.2493 23.4815 12.8573C23.4815 13.7956 23.0364 15.7516 22.5913 16.8221C21.7665 18.831 19.9993 20.9059 18.232 21.95C15.7447 23.417 12.4327 23.7871 9.64428 22.928C8.71482 22.6373 7.11771 21.8972 7.11771 21.765C7.11771 21.7253 7.60208 21.6725 8.19117 21.6593C9.42173 21.6328 10.6523 21.2892 11.6996 20.6813L12.4065 20.2583L11.5948 19.9808C10.4428 19.5843 9.40864 18.6724 9.14682 17.8134C9.06827 17.5358 9.09445 17.5226 9.82755 17.5226L10.5868 17.5094L9.94537 17.2054C9.18609 16.8221 8.49227 16.1745 8.1519 15.5137C7.90317 15.038 7.58899 13.8353 7.68063 13.7428C7.70681 13.7031 7.98172 13.7824 8.2959 13.8881C9.19918 14.2185 9.317 14.1393 8.79336 13.5842C7.81154 12.5797 7.51044 11.0863 7.98172 9.67218L8.20427 9.0378L9.06827 9.89686C10.8356 11.6282 12.917 12.659 15.2996 12.963L15.9541 13.0423Z" fill="#1B1B1B"/>
<rect x="1.5" y="1.5" width="28.0588" height="28.0588" stroke="#1B1B1B" stroke-width="3"/>
</svg>
